<svg width="411" height="62" viewBox="0 0 411 62" fill="none" xmlns="http://www.w3.org/2000/svg">
<g clip-path="url(#clip0_23_1076)">
<path d="M36.0582 26.2196C36.7645 26.6844 37.6005 26.9645 38.4735 27.0288C39.3465 27.0931 40.2223 26.939 41.0036 26.5837C41.7849 26.2283 42.4411 25.6857 42.8992 25.0159C43.3574 24.3462 43.5997 23.5757 43.5991 22.7899L43.5602 4.24404C43.5586 3.11709 43.058 2.0369 42.1685 1.24108C41.7281 0.847027 41.2054 0.534655 40.6305 0.321795C40.0555 0.108935 39.4394 -0.000243964 38.8173 0.000491977C37.5611 0.00197828 36.357 0.451081 35.4698 1.249C34.5827 2.04692 34.0853 3.1283 34.0869 4.25525L34.1244 22.7998C34.1241 23.4661 34.299 24.1231 34.635 24.7173C34.9711 25.3116 35.4587 25.8263 36.0582 26.2196Z" fill="#448DFF"/>
<path d="M71.3272 21.6937L51.7184 27.5643C51.1248 27.7382 50.5754 28.0157 50.1018 28.3807C49.6283 28.7458 49.2398 29.1912 48.9588 29.6914C48.6778 30.1917 48.5099 30.7368 48.4646 31.2954C48.4193 31.8541 48.4976 32.4153 48.695 32.9467C48.8924 33.4781 49.2049 33.9693 49.6147 34.3919C50.0244 34.8146 50.5233 35.1604 51.0825 35.4095C51.6418 35.6586 52.2505 35.806 52.8735 35.8433C53.4965 35.8806 54.1216 35.807 54.7128 35.6268L74.3216 29.7636C74.9123 29.5873 75.4585 29.3082 75.9289 28.9425C76.3994 28.5768 76.7849 28.1315 77.0636 27.6321C77.3422 27.1327 77.5085 26.589 77.5529 26.0319C77.5973 25.4749 77.5189 24.9155 77.3223 24.3856C77.1257 23.8557 76.8146 23.3658 76.407 22.9437C75.9993 22.5217 75.5029 22.1758 74.9462 21.9258C74.3895 21.6759 73.7834 21.5267 73.1624 21.4869C72.5415 21.4471 71.9179 21.5174 71.3272 21.6937Z" fill="white"/>
<path d="M28.8428 32.9381C29.0395 32.4087 29.118 31.8497 29.0738 31.2931C29.0296 30.7365 28.8636 30.1932 28.5852 29.6942C28.3069 29.1951 27.9217 28.7502 27.4516 28.3848C26.9816 28.0193 26.4358 27.7405 25.8456 27.5644L6.23677 21.6937C5.04386 21.3375 3.74206 21.421 2.61776 21.9258C1.49346 22.4306 0.638758 23.3154 0.241672 24.3856C-0.155414 25.4557 -0.0623528 26.6235 0.500383 27.6321C1.06312 28.6407 2.04943 29.4074 3.24235 29.7636L22.8512 35.6268C23.4414 35.8032 24.0646 35.8737 24.6851 35.834C25.3057 35.7944 25.9115 35.6455 26.4679 35.3958C27.0242 35.1461 27.5204 34.8006 27.9279 34.3789C28.3354 33.9572 28.6463 33.4676 28.8428 32.9381Z" fill="white"/>
<path d="M42.5533 33.832H42.5436C43.1493 34.5531 43.4785 35.4307 43.482 36.3335C43.4855 37.2364 43.1631 38.116 42.563 38.8408L42.5713 38.8471L38.7676 43.5383L52.1516 59.8114C52.5188 60.2649 52.9825 60.6488 53.5159 60.9409C54.0492 61.233 54.6417 61.4275 55.2593 61.5133C55.8768 61.599 56.5072 61.5743 57.114 61.4406C57.7209 61.3068 58.2922 61.0667 58.7952 60.734C59.2981 60.4013 59.7227 59.9826 60.0444 59.502C60.3662 59.0215 60.5788 58.4885 60.6699 57.934C60.7611 57.3794 60.729 56.8141 60.5755 56.2707C60.4221 55.7273 60.1503 55.2165 59.7758 54.7677L42.5533 33.832Z" fill="#FF557A"/>
<path d="M42.5629 38.8475C42.5046 38.9198 42.456 38.9982 42.3935 39.0667L38.7674 43.5375L35.0997 39.0779C34.443 38.3712 34.0595 37.4925 34.0066 36.5737C33.9538 35.6549 34.2346 34.7455 34.8068 33.9819L17.9217 54.8068C17.5558 55.2581 17.2926 55.7696 17.1471 56.3121C17.0015 56.8547 16.9766 57.4176 17.0736 57.9688C17.2695 59.0821 17.9503 60.0799 18.9663 60.7427C19.9823 61.4056 21.2503 61.6793 22.4912 61.5036C23.1056 61.4165 23.695 61.2218 24.2255 60.9305C24.7561 60.6391 25.2175 60.2569 25.5834 59.8056L38.7716 43.545L42.5754 38.8538L42.5629 38.8475Z" fill="#8857E5"/>
<path d="M35.0994 39.0784L38.7671 43.538L42.3932 39.0672C42.4556 38.9987 42.5042 38.9203 42.5625 38.848C42.9271 38.3977 43.1893 37.8874 43.3341 37.3462C43.4788 36.805 43.5033 36.2435 43.4062 35.6938C43.3091 35.1441 43.0922 34.6169 42.768 34.1424C42.4437 33.6679 42.0185 33.2553 41.5165 32.9282C41.0145 32.6012 40.4456 32.366 39.8423 32.2361C39.239 32.1063 38.6131 32.0843 38.0004 32.1714C37.3876 32.2585 36.7999 32.4531 36.271 32.744C35.742 33.0348 35.2821 33.4163 34.9175 33.8666C34.887 33.9052 34.8467 33.9364 34.8176 33.9762L34.8064 33.9887C34.2342 34.7522 33.9535 35.6616 34.0063 36.5805C34.0591 37.4993 34.4427 38.378 35.0994 39.0847V39.0784Z" fill="#881D6E"/>
<path d="M111.642 1.81162C111.459 1.31331 111.106 0.879424 110.632 0.571829C110.159 0.264235 109.589 0.0986328 109.004 0.0986328C108.419 0.0986328 107.85 0.264235 107.376 0.571829C106.902 0.879424 106.549 1.31331 106.367 1.81162L97.0653 21.6476C96.875 22.0718 96.7638 22.5211 96.7363 22.9777C96.7381 23.2989 96.8112 23.6165 96.9516 23.912C97.0919 24.2075 97.2966 24.4749 97.5537 24.6986C97.8107 24.9222 98.1149 25.0975 98.4485 25.2143C98.782 25.3311 99.1382 25.387 99.4961 25.3787C100.084 25.3731 100.653 25.1974 101.121 24.8779C101.588 24.5583 101.928 24.112 102.089 23.6053L103.243 21.0935H114.731L115.884 23.6053C116.06 24.1123 116.41 24.5566 116.883 24.875C117.357 25.1934 117.93 25.3697 118.522 25.3787C118.878 25.3862 119.231 25.3295 119.562 25.212C119.893 25.0945 120.194 24.9185 120.448 24.6946C120.701 24.4706 120.902 24.2032 121.038 23.9083C121.174 23.6133 121.243 23.2969 121.24 22.9777C121.232 22.5189 121.12 22.0663 120.911 21.6476L111.642 1.81162ZM105.053 16.9937L109.006 7.46304L112.876 16.9937H105.053Z" fill="white"/>
<path d="M147.754 0.111589C147.382 0.106738 147.012 0.169645 146.667 0.296517C146.322 0.42339 146.009 0.611601 145.748 0.849805C145.486 1.08801 145.281 1.37127 145.144 1.68252C145.008 1.99377 144.943 2.32656 144.954 2.66083L144.996 15.5901L132.931 1.743C132.108 0.813969 131.49 0.111589 130.089 0.111589C129.726 0.113478 129.366 0.180325 129.032 0.308224C128.698 0.436124 128.395 0.62251 128.142 0.85649C127.889 1.09047 127.691 1.36735 127.558 1.67096C127.426 1.97456 127.362 2.2988 127.371 2.62472V22.8294C127.371 23.4908 127.664 24.1251 128.185 24.5928C128.706 25.0604 129.414 25.3232 130.151 25.3232C130.888 25.3232 131.595 25.0604 132.117 24.5928C132.638 24.1251 132.931 23.4908 132.931 22.8294V9.90132L145.036 23.8642C145.319 24.3028 145.72 24.6711 146.202 24.9355C146.684 25.2 147.232 25.3523 147.796 25.3786C148.16 25.3798 148.521 25.3151 148.857 25.1883C149.192 25.0615 149.496 24.8753 149.75 24.6408C150.003 24.4063 150.202 24.1284 150.333 23.8235C150.464 23.5187 150.525 23.1933 150.513 22.8667V2.66083C150.525 2.32946 150.462 1.99933 150.329 1.69012C150.196 1.38091 149.994 1.09895 149.737 0.861055C149.479 0.623159 149.171 0.434197 148.831 0.305435C148.49 0.176673 148.124 0.110747 147.754 0.111589Z" fill="white"/>
<path d="M179.082 2.8095C179.09 2.50849 179.029 2.20923 178.903 1.93018C178.777 1.65113 178.589 1.3982 178.349 1.18699C178.11 0.975786 177.825 0.810782 177.512 0.702158C177.199 0.593533 176.865 0.54359 176.529 0.55541H158.046C157.712 0.546648 157.379 0.59869 157.067 0.708405C156.756 0.81812 156.472 0.983239 156.234 1.19382C155.995 1.40441 155.807 1.65611 155.679 1.93377C155.552 2.21143 155.489 2.50932 155.493 2.8095C155.492 3.10895 155.557 3.40568 155.685 3.68217C155.813 3.95866 156.002 4.2093 156.24 4.4193C156.478 4.62929 156.76 4.79439 157.071 4.90484C157.381 5.01528 157.713 5.06884 158.046 5.06235H164.506V22.8298C164.506 23.4904 164.798 24.1239 165.319 24.591C165.84 25.0581 166.546 25.3205 167.282 25.3205C168.019 25.3205 168.725 25.0581 169.246 24.591C169.766 24.1239 170.059 23.4904 170.059 22.8298V5.06235H176.524C176.858 5.06952 177.19 5.01646 177.501 4.90632C177.812 4.79617 178.095 4.63118 178.334 4.42112C178.572 4.21105 178.762 3.96018 178.89 3.68335C179.019 3.40653 179.084 3.10938 179.082 2.8095Z" fill="white"/>
<path d="M189.634 22.8296V2.66112C189.634 2.00054 189.341 1.36702 188.821 0.899922C188.3 0.432824 187.594 0.17041 186.858 0.17041C186.121 0.17041 185.415 0.432824 184.894 0.899922C184.374 1.36702 184.081 2.00054 184.081 2.66112V22.8359C184.081 23.4964 184.374 24.13 184.894 24.5971C185.415 25.0642 186.121 25.3266 186.858 25.3266C187.594 25.3266 188.3 25.0642 188.821 24.5971C189.341 24.13 189.634 23.4964 189.634 22.8359V22.8296Z" fill="white"/>
<path d="M198.278 14.1495H204.576C204.886 14.1558 205.195 14.1057 205.483 14.0021C205.771 13.8985 206.032 13.7436 206.252 13.5468C206.471 13.3499 206.644 13.1153 206.759 12.8569C206.875 12.5986 206.931 12.3219 206.924 12.0437C206.93 11.7673 206.873 11.4927 206.757 11.2367C206.641 10.9807 206.467 10.7487 206.247 10.555C206.028 10.3613 205.766 10.21 205.479 10.1102C205.191 10.0105 204.884 9.96454 204.576 9.97512H198.278C197.97 9.96454 197.663 10.0105 197.375 10.1102C197.088 10.21 196.826 10.3613 196.607 10.555C196.387 10.7487 196.213 10.9807 196.097 11.2367C195.981 11.4927 195.924 11.7673 195.93 12.0437C195.923 12.322 195.979 12.5987 196.094 12.8571C196.21 13.1156 196.382 13.3503 196.602 13.5472C196.821 13.744 197.083 13.8989 197.371 14.0024C197.659 14.106 197.968 14.156 198.278 14.1495Z" fill="white"/>
<path d="M225.288 24.9356C230.563 24.9356 234.264 21.9804 234.264 17.7699C234.307 16.4263 233.853 15.1077 232.975 14.0189C232.096 12.9302 230.841 12.1321 229.405 11.7486C230.07 11.1849 230.592 10.501 230.94 9.74224C231.287 8.98346 231.45 8.16716 231.418 7.34748C231.418 3.32125 227.877 0.550336 222.811 0.550336H216.017C215.64 0.538509 215.265 0.596359 214.914 0.720285C214.564 0.844211 214.245 1.03156 213.978 1.27068C213.712 1.5098 213.503 1.79557 213.365 2.11021C213.227 2.42484 213.162 2.76162 213.176 3.09958V22.3864C213.162 22.7243 213.227 23.0611 213.365 23.3758C213.503 23.6904 213.712 23.9762 213.978 24.2153C214.245 24.4544 214.564 24.6418 214.914 24.7657C215.265 24.8896 215.64 24.9475 216.017 24.9356H225.288ZM218.577 4.84058H222.406C224.588 4.84058 225.947 5.87547 225.947 7.6115C225.947 9.34752 224.588 10.4185 222.406 10.4185H218.577V4.84058ZM218.577 14.5195H224.876C227.306 14.5195 228.747 15.664 228.747 17.5843C228.747 19.542 227.306 20.6504 224.876 20.6504H218.577V14.5195Z" fill="white"/>
<path d="M263.21 14.8499V2.66033C263.21 1.99975 262.917 1.36623 262.397 0.899129C261.876 0.432031 261.17 0.169617 260.433 0.169617C259.697 0.169617 258.991 0.432031 258.47 0.899129C257.949 1.36623 257.657 1.99975 257.657 2.66033V15.2197C257.657 18.6183 255.351 20.7603 251.688 20.7603C248.024 20.7603 245.718 18.6183 245.718 15.2197V2.66033C245.718 1.99892 245.425 1.36461 244.904 0.896928C244.383 0.429245 243.675 0.166504 242.938 0.166504C242.201 0.166504 241.494 0.429245 240.972 0.896928C240.451 1.36461 240.158 1.99892 240.158 2.66033V14.8499C240.158 21.1302 244.812 25.3781 251.689 25.3781C258.566 25.3781 263.21 21.1302 263.21 14.8499Z" fill="white"/>
<path d="M288.615 22.6823C288.62 22.3821 288.556 22.0842 288.429 21.8065C288.302 21.5289 288.113 21.2772 287.875 21.0666C287.636 20.856 287.353 20.6909 287.041 20.5812C286.73 20.4715 286.397 20.4194 286.062 20.4282H276.385V2.66069C276.4 2.32895 276.34 1.99785 276.208 1.68755C276.077 1.37725 275.876 1.09425 275.619 0.855768C275.361 0.617285 275.052 0.428312 274.71 0.300351C274.369 0.172391 274.002 0.10812 273.632 0.111451C273.261 0.112746 272.894 0.179841 272.552 0.308873C272.211 0.437905 271.901 0.626323 271.64 0.863275C271.38 1.10023 271.175 1.38103 271.036 1.68951C270.897 1.99799 270.828 2.32806 270.832 2.66069V22.3859C270.819 22.7238 270.883 23.0606 271.021 23.3752C271.159 23.6899 271.368 23.9756 271.635 24.2148C271.901 24.4539 272.22 24.6412 272.571 24.7652C272.921 24.8891 273.297 24.9469 273.673 24.9351H286.068C286.403 24.9464 286.736 24.8961 287.049 24.7873C287.361 24.6785 287.645 24.5135 287.884 24.3025C288.123 24.0915 288.311 23.8388 288.436 23.5602C288.562 23.2816 288.623 22.9828 288.615 22.6823Z" fill="white"/>
<path d="M309.251 20.4232H299.574V2.66075C299.589 2.32858 299.529 1.99706 299.397 1.68643C299.265 1.37579 299.064 1.09255 298.806 0.853999C298.548 0.615444 298.238 0.426576 297.896 0.298919C297.554 0.171261 297.186 0.107494 296.815 0.111506C296.445 0.112636 296.078 0.179618 295.736 0.308592C295.394 0.437565 295.084 0.625978 294.824 0.862963C294.563 1.09995 294.358 1.38082 294.219 1.68937C294.08 1.99793 294.011 2.32807 294.015 2.66075V22.3859C294.002 22.7239 294.067 23.0607 294.205 23.3753C294.343 23.6899 294.552 23.9757 294.818 24.2148C295.085 24.4539 295.403 24.6413 295.754 24.7652C296.105 24.8891 296.48 24.947 296.857 24.9352H309.251C309.586 24.9422 309.919 24.8892 310.231 24.7791C310.542 24.669 310.826 24.5042 311.066 24.2942C311.306 24.0842 311.496 23.8334 311.626 23.5565C311.756 23.2796 311.823 22.9822 311.823 22.6817C311.823 22.3812 311.756 22.0838 311.626 21.8069C311.496 21.53 311.306 21.2791 311.066 21.0692C310.826 20.8592 310.542 20.6944 310.231 20.5843C309.919 20.4742 309.586 20.4212 309.251 20.4282V20.4232Z" fill="white"/>
<path d="M331.528 0.112316C330.981 0.0998217 330.442 0.233732 329.98 0.496988C329.517 0.760245 329.153 1.14093 328.933 1.59055L323.086 10.6816L317.239 1.59055C317.013 1.13663 316.641 0.753476 316.171 0.490129C315.702 0.226781 315.155 0.09523 314.601 0.112316C314.248 0.103848 313.897 0.158731 313.568 0.273737C313.24 0.388743 312.94 0.561551 312.687 0.782003C312.433 1.00245 312.232 1.2661 312.094 1.55744C311.956 1.84878 311.884 2.16193 311.883 2.47849C311.885 3.0777 312.102 3.66045 312.501 4.14104L320.283 15.6656V22.8313C320.283 23.4919 320.576 24.1254 321.096 24.5925C321.617 25.0596 322.323 25.322 323.06 25.322C323.796 25.322 324.502 25.0596 325.023 24.5925C325.543 24.1254 325.836 23.4919 325.836 22.8313V15.6643L333.659 4.13979C334.034 3.66431 334.236 3.09605 334.236 2.51336C334.239 2.19491 334.171 1.87918 334.035 1.58484C333.9 1.2905 333.7 1.02351 333.447 0.799664C333.195 0.57582 332.895 0.399661 332.565 0.281602C332.235 0.163543 331.883 0.10598 331.528 0.112316Z" fill="white"/>
<path d="M343.47 0.111436C343.096 0.104056 342.725 0.165266 342.379 0.2913C342.033 0.417334 341.72 0.605528 341.458 0.844307C341.196 1.08309 340.991 1.3674 340.857 1.67977C340.722 1.99214 340.66 2.32595 340.674 2.66068V22.8354C340.674 23.496 340.966 24.1295 341.487 24.5966C342.008 25.0637 342.714 25.3261 343.45 25.3261C344.187 25.3261 344.893 25.0637 345.414 24.5966C345.934 24.1295 346.227 23.496 346.227 22.8354V2.66068C346.242 2.32866 346.182 1.99732 346.05 1.68685C345.918 1.37638 345.717 1.09328 345.459 0.854778C345.201 0.616279 344.891 0.427379 344.55 0.299583C344.208 0.171788 343.84 0.107772 343.47 0.111436Z" fill="white"/>
<path d="M374.436 0.111646C374.063 0.106285 373.692 0.168815 373.347 0.29546C373.002 0.422105 372.688 0.610237 372.426 0.848494C372.164 1.08675 371.959 1.37019 371.822 1.68169C371.686 1.9932 371.621 2.3263 371.632 2.66089L371.673 15.5902L359.611 1.74306C358.788 0.814026 358.166 0.111646 356.778 0.111646C356.414 0.113535 356.055 0.180382 355.72 0.308281C355.386 0.436181 355.084 0.622567 354.831 0.856547C354.578 1.09053 354.379 1.36741 354.247 1.67101C354.114 1.97462 354.051 2.29885 354.059 2.62477V22.8294C354.059 23.49 354.352 24.1235 354.873 24.5906C355.393 25.0577 356.099 25.3201 356.836 25.3201C357.572 25.3201 358.278 25.0577 358.799 24.5906C359.32 24.1235 359.612 23.49 359.612 22.8294V9.90138L371.719 23.8643C372.002 24.3029 372.403 24.6711 372.885 24.9356C373.367 25.2 373.915 25.3523 374.479 25.3787C374.843 25.3798 375.204 25.3151 375.54 25.1884C375.875 25.0616 376.179 24.8754 376.433 24.6409C376.686 24.4064 376.885 24.1284 377.016 23.8236C377.147 23.5187 377.208 23.1933 377.196 22.8668V2.66089C377.208 2.32941 377.145 1.99918 377.012 1.68989C376.878 1.38059 376.677 1.09858 376.419 0.860663C376.162 0.62275 375.853 0.433814 375.512 0.305126C375.172 0.176439 374.806 0.110637 374.436 0.111646Z" fill="white"/>
<path d="M408.16 11.5636H400.254C399.923 11.541 399.589 11.5801 399.275 11.6784C398.961 11.7768 398.673 11.9322 398.429 12.1351C398.185 12.3379 397.991 12.5838 397.858 12.8573C397.725 13.1307 397.656 13.4259 397.656 13.7243C397.656 14.0227 397.725 14.3179 397.858 14.5914C397.991 14.8648 398.185 15.1107 398.429 15.3135C398.673 15.5164 398.961 15.6718 399.275 15.7702C399.589 15.8685 399.923 15.9076 400.254 15.885H405.442V17.9909C404.582 18.9425 403.487 19.7015 402.244 20.2079C401 20.7144 399.642 20.9543 398.278 20.9088C397.069 20.9607 395.862 20.7849 394.734 20.3925C393.606 20.0002 392.582 19.4 391.728 18.6309C390.874 17.8617 390.21 16.9405 389.778 15.9268C389.345 14.9131 389.155 13.8294 389.218 12.7455C389.179 11.1452 389.686 9.5725 390.672 8.23833C391.657 6.90415 393.074 5.87236 394.733 5.28141C396.391 4.69046 398.211 4.56862 399.949 4.93225C401.686 5.29588 403.258 6.12757 404.454 7.31572C404.723 7.65012 405.075 7.92408 405.482 8.11614C405.889 8.30821 406.34 8.41318 406.8 8.42284C407.47 8.42196 408.112 8.18549 408.589 7.76425C409.067 7.343 409.341 6.77059 409.353 6.16999C409.297 5.64992 409.118 5.14664 408.826 4.69417C408.535 4.2417 408.139 3.85059 407.665 3.54728C405.083 1.30741 401.62 0.0725625 398.029 0.111342C396.141 0.0555505 394.259 0.341036 392.496 0.950816C390.733 1.5606 389.125 2.48222 387.767 3.66086C386.409 4.83949 385.329 6.25108 384.592 7.81164C383.855 9.3722 383.475 11.0499 383.475 12.7448C383.475 14.4398 383.855 16.1175 384.592 17.6781C385.329 19.2386 386.409 20.6502 387.767 21.8288C389.125 23.0075 390.733 23.9291 392.496 24.5389C394.259 25.1487 396.141 25.4341 398.029 25.3783C400.374 25.3994 402.691 24.9256 404.794 23.9954C406.897 23.0653 408.727 21.7046 410.136 20.0233C410.741 19.204 411.044 18.2346 411.001 17.2524V14.1116C411.014 13.7738 410.949 13.4372 410.811 13.1227C410.673 12.8082 410.465 12.5226 410.198 12.2836C409.932 12.0446 409.613 11.8573 409.263 11.7335C408.912 11.6096 408.537 11.5518 408.16 11.5636Z" fill="white"/>
<path d="M111.642 38.4322C111.459 37.9339 111.106 37.5 110.632 37.1924C110.159 36.8848 109.589 36.7192 109.004 36.7192C108.419 36.7192 107.85 36.8848 107.376 37.1924C106.902 37.5 106.549 37.9339 106.367 38.4322L97.0653 58.2682C96.875 58.6924 96.7638 59.1417 96.7363 59.5983C96.7381 59.9195 96.8112 60.2371 96.9516 60.5326C97.0919 60.8282 97.2966 61.0956 97.5537 61.3192C97.8107 61.5428 98.1149 61.7181 98.4485 61.8349C98.782 61.9517 99.1382 62.0076 99.4961 61.9993C100.084 61.9935 100.653 61.8177 101.12 61.4982C101.588 61.1787 101.927 60.7325 102.089 60.2259L103.243 57.7141H114.731L115.884 60.2259C116.06 60.7328 116.41 61.177 116.883 61.4953C117.357 61.8137 117.93 61.9901 118.522 61.9993C118.878 62.0068 119.231 61.9502 119.562 61.8326C119.893 61.7151 120.194 61.5391 120.448 61.3152C120.701 61.0912 120.902 60.8238 121.038 60.5289C121.174 60.2339 121.243 59.9175 121.24 59.5983C121.232 59.1395 121.12 58.6869 120.911 58.2682L111.642 38.4322ZM105.053 53.6143L109.006 44.0849L112.876 53.6156L105.053 53.6143Z" fill="white"/>
<path d="M142.607 57.0497H132.931V39.2822C132.945 38.9504 132.884 38.6194 132.752 38.3094C132.619 37.9993 132.418 37.7167 132.16 37.4787C131.901 37.2407 131.592 37.0523 131.25 36.925C130.908 36.7976 130.541 36.734 130.171 36.738C129.8 36.7393 129.433 36.8064 129.091 36.9354C128.75 37.0644 128.44 37.2528 128.179 37.4898C127.919 37.7267 127.714 38.0075 127.575 38.316C127.436 38.6245 127.367 38.9546 127.371 39.2872V59.0074C127.358 59.3458 127.422 59.683 127.561 59.998C127.699 60.313 127.909 60.599 128.176 60.8382C128.443 61.0774 128.762 61.2646 129.113 61.3882C129.465 61.5118 129.841 61.5692 130.218 61.5566H142.612C142.947 61.5637 143.28 61.5106 143.592 61.4006C143.903 61.2905 144.187 61.1256 144.427 60.9157C144.667 60.7057 144.857 60.4549 144.987 60.178C145.117 59.9011 145.184 59.6036 145.184 59.3032C145.184 59.0027 145.117 58.7053 144.987 58.4283C144.857 58.1514 144.667 57.9006 144.427 57.6907C144.187 57.4807 143.903 57.3159 143.592 57.2058C143.28 57.0957 142.947 57.0426 142.612 57.0497H142.607Z" fill="white"/>
<path d="M165.789 57.0493H156.112V39.2818C156.127 38.9497 156.067 38.6182 155.935 38.3075C155.803 37.9969 155.602 37.7136 155.344 37.4751C155.086 37.2365 154.776 37.0477 154.434 36.92C154.092 36.7924 153.724 36.7286 153.354 36.7326C152.983 36.7337 152.616 36.8007 152.274 36.9297C151.932 37.0587 151.622 37.2471 151.362 37.4841C151.101 37.721 150.896 38.0019 150.757 38.3105C150.618 38.619 150.549 38.9492 150.553 39.2818V59.007C150.54 59.3449 150.605 59.6815 150.743 59.9961C150.881 60.3106 151.09 60.5963 151.356 60.8354C151.622 61.0745 151.941 61.2619 152.291 61.3859C152.642 61.5099 153.017 61.5679 153.394 61.5563H165.789C166.124 61.5633 166.457 61.5103 166.769 61.4002C167.081 61.2901 167.365 61.1253 167.604 60.9153C167.844 60.7053 168.034 60.4545 168.164 60.1776C168.294 59.9007 168.361 59.6033 168.361 59.3028C168.361 59.0023 168.294 58.7049 168.164 58.428C168.034 58.151 167.844 57.9002 167.604 57.6903C167.365 57.4803 167.081 57.3155 166.769 57.2054C166.457 57.0953 166.124 57.0423 165.789 57.0493Z" fill="white"/>
<path d="M176.535 36.7375C176.161 36.7296 175.789 36.7904 175.443 36.9162C175.096 37.042 174.782 37.2301 174.52 37.469C174.258 37.7078 174.053 37.9923 173.918 38.3049C173.782 38.6176 173.72 38.9517 173.734 39.2867V59.4615C173.734 60.1221 174.027 60.7556 174.548 61.2227C175.068 61.6898 175.775 61.9522 176.511 61.9522C177.247 61.9522 177.953 61.6898 178.474 61.2227C178.995 60.7556 179.287 60.1221 179.287 59.4615V39.2818C179.302 38.9505 179.241 38.62 179.109 38.3104C178.977 38.0007 178.776 37.7184 178.519 37.4805C178.261 37.2426 177.953 37.0541 177.612 36.9263C177.271 36.7986 176.904 36.7344 176.535 36.7375Z" fill="white"/>
<path d="M200.295 38.4322C200.112 37.9339 199.759 37.5 199.285 37.1924C198.811 36.8848 198.242 36.7192 197.657 36.7192C197.072 36.7192 196.502 36.8848 196.029 37.1924C195.555 37.5 195.202 37.9339 195.019 38.4322L185.718 58.2682C185.527 58.6923 185.416 59.1417 185.388 59.5983C185.389 59.9195 185.463 60.2371 185.603 60.5326C185.743 60.8282 185.948 61.0956 186.205 61.3192C186.462 61.5428 186.766 61.7181 187.1 61.8349C187.433 61.9517 187.79 62.0076 188.147 61.9993C188.735 61.9939 189.305 61.8183 189.772 61.4987C190.239 61.1792 190.579 60.7327 190.741 60.2259L191.894 57.7141H203.376L204.53 60.2259C204.706 60.7328 205.056 61.177 205.529 61.4953C206.003 61.8137 206.576 61.9901 207.168 61.9993C207.524 62.007 207.877 61.9504 208.208 61.833C208.539 61.7155 208.84 61.5395 209.094 61.3155C209.348 61.0915 209.548 60.8241 209.684 60.5291C209.82 60.2341 209.889 59.9175 209.886 59.5983C209.879 59.1394 209.767 58.6867 209.557 58.2682L200.295 38.4322ZM193.706 53.6143L197.66 44.0836L201.53 53.6143H193.706Z" fill="white"/>
<path d="M236.406 36.7381C236.034 36.7332 235.664 36.7961 235.319 36.923C234.974 37.0499 234.661 37.2381 234.399 37.4763C234.138 37.7145 233.933 37.9977 233.796 38.309C233.66 38.6202 233.595 38.953 233.606 39.2873L233.648 52.2166L221.583 38.357C220.76 37.4342 220.142 36.7381 218.741 36.7381C218.378 36.7399 218.019 36.8068 217.685 36.9346C217.35 37.0624 217.048 37.2487 216.795 37.4826C216.542 37.7165 216.344 37.9932 216.211 38.2967C216.079 38.6001 216.015 38.9242 216.024 39.2499V59.4508C216.024 60.1114 216.317 60.7449 216.837 61.212C217.358 61.6791 218.064 61.9415 218.801 61.9415C219.537 61.9415 220.243 61.6791 220.764 61.212C221.285 60.7449 221.577 60.1114 221.577 59.4508V46.5216L233.683 60.4857C233.966 60.9242 234.367 61.2924 234.848 61.5568C235.33 61.8213 235.878 61.9736 236.442 62.0001C236.807 62.0013 237.168 61.9366 237.503 61.8098C237.839 61.6831 238.143 61.4969 238.397 61.2624C238.65 61.0279 238.849 60.7499 238.98 60.4451C239.111 60.1403 239.173 59.8148 239.161 59.4882V39.2823C239.172 38.9517 239.108 38.6225 238.975 38.3142C238.841 38.0059 238.64 37.7248 238.383 37.4875C238.127 37.2502 237.819 37.0616 237.48 36.9329C237.14 36.8042 236.775 36.7379 236.406 36.7381Z" fill="white"/>
<path d="M259.96 41.3454C261.225 41.3233 262.478 41.5583 263.626 42.0328C264.774 42.5073 265.788 43.209 266.591 44.0852C266.849 44.3746 267.174 44.6104 267.543 44.7762C267.913 44.9419 268.318 45.0338 268.731 45.0454C269.407 45.0521 270.059 44.8192 270.545 44.3974C271.031 43.9756 271.311 43.3989 271.326 42.7925C271.308 42.101 270.999 41.4413 270.461 40.9456C269.156 39.6024 267.541 38.5299 265.728 37.8026C263.914 37.0753 261.947 36.7106 259.96 36.7339C258.08 36.6871 256.208 36.9787 254.455 37.5914C252.703 38.204 251.104 39.1254 249.755 40.3011C248.406 41.4768 247.332 42.8831 246.599 44.4369C245.865 45.9907 245.485 47.6607 245.482 49.3482C245.48 51.0357 245.854 52.7066 246.582 54.2624C247.311 55.8181 248.38 57.2272 249.725 58.4065C251.071 59.5858 252.666 60.5114 254.417 61.1288C256.167 61.7461 258.038 62.0426 259.919 62.0009C261.906 62.0318 263.877 61.6706 265.691 60.9428C267.506 60.2149 269.12 59.1383 270.419 57.7891C270.949 57.2885 271.256 56.6318 271.284 55.9422C271.282 55.6439 271.214 55.3489 271.084 55.0741C270.954 54.7994 270.765 54.5503 270.528 54.3411C270.291 54.1318 270.011 53.9666 269.702 53.8548C269.394 53.7429 269.064 53.6867 268.731 53.6894C268.312 53.7004 267.901 53.7918 267.524 53.9575C267.148 54.1231 266.815 54.359 266.549 54.6495C265.749 55.5191 264.742 56.2166 263.602 56.6907C262.461 57.1649 261.217 57.4036 259.96 57.3893C258.788 57.4227 257.621 57.2383 256.531 56.8476C255.442 56.457 254.455 55.8686 253.631 55.1193C252.808 54.3701 252.166 53.4761 251.745 52.4937C251.325 51.5113 251.136 50.4615 251.19 49.4103C251.129 48.3536 251.313 47.2971 251.729 46.3071C252.146 45.3171 252.786 44.4151 253.61 43.6577C254.433 42.9003 255.423 42.304 256.516 41.906C257.608 41.5081 258.781 41.3172 259.96 41.3454Z" fill="white"/>
<path d="M294.839 57.0494H283.845V50.8812H291.05C291.365 50.8881 291.679 50.8382 291.973 50.7345C292.267 50.6309 292.535 50.4755 292.761 50.2776C292.987 50.0797 293.167 49.8433 293.289 49.5822C293.412 49.321 293.475 49.0406 293.475 48.7572C293.475 48.4739 293.412 48.1934 293.289 47.9323C293.167 47.6712 292.987 47.4348 292.761 47.2369C292.535 47.039 292.267 46.8836 291.973 46.78C291.679 46.6763 291.365 46.6264 291.05 46.6333H283.845V41.683H294.345C294.679 41.6895 295.011 41.6359 295.321 41.5254C295.632 41.4149 295.914 41.2496 296.152 41.0395C296.39 40.8294 296.579 40.5786 296.707 40.302C296.835 40.0253 296.9 39.7285 296.898 39.4289C296.906 39.128 296.845 38.8288 296.719 38.5498C296.593 38.2708 296.404 38.0179 296.165 37.8068C295.926 37.5957 295.641 37.4308 295.328 37.3223C295.015 37.2139 294.68 37.1641 294.345 37.1761H281.044C280.68 37.1698 280.318 37.2296 279.98 37.3518C279.642 37.474 279.335 37.6561 279.077 37.8873C278.82 38.1184 278.617 38.3938 278.481 38.697C278.344 39.0002 278.278 39.325 278.285 39.6518V59.0794C278.278 59.4062 278.344 59.731 278.481 60.0342C278.617 60.3374 278.82 60.6128 279.077 60.8439C279.335 61.0751 279.642 61.2572 279.98 61.3794C280.318 61.5016 280.68 61.5614 281.044 61.5551H294.839C295.174 61.5622 295.507 61.5091 295.819 61.3991C296.131 61.289 296.415 61.1241 296.654 60.9142C296.894 60.7042 297.084 60.4534 297.214 60.1765C297.344 59.8996 297.411 59.6021 297.411 59.3017C297.411 59.0012 297.344 58.7038 297.214 58.4268C297.084 58.1499 296.894 57.8991 296.654 57.6892C296.415 57.4792 296.131 57.3143 295.819 57.2043C295.507 57.0942 295.174 57.0411 294.839 57.0482V57.0494Z" fill="white"/>
</g>
<defs>
<clipPath id="clip0_23_1076">
<rect width="411" height="62" fill="white"/>
</clipPath>
</defs>
</svg>
