<svg width="296" height="100" viewBox="0 0 296 100" fill="none" xmlns="http://www.w3.org/2000/svg">
<g clip-path="url(#clip0_23_1049)">
<path d="M174.62 85.7371V85.6685H169.786C168.762 85.6685 167.738 85.5649 167.093 86.5987H162.229V77.7422H167.093C167.738 78.776 168.762 78.6841 169.786 78.6841H189.664V87.0466L177.344 92.1813V92.2503H182.106C183.13 92.2503 184.155 92.3422 184.8 91.3085H189.664V99.9009H184.8C184.165 98.8672 183.141 98.9591 182.106 98.9591H169.786C168.762 98.9591 167.738 98.8672 167.093 99.9009H162.229V90.5275L174.62 85.7371Z" fill="white"/>
<path d="M189.664 55.7207V76.4664H184.8C184.165 75.4327 183.141 75.5246 182.106 75.5246H169.786C168.762 75.5246 167.738 75.4327 167.093 76.4664H162.229V55.7207H171.507V63.6699H170.678C168.824 63.6699 168.056 63.9339 168.056 66.2543V66.7716H172.951V61.315H178.297V66.7716H183.837V66.2543C183.837 63.6699 182.874 63.7044 180.632 63.6699H179.73V55.7207H189.664Z" fill="white"/>
<path d="M162.242 22.2695H167.107C167.874 23.2344 169.124 23.3378 170.271 23.5561L189.667 27.209V35.5143L176.579 37.9381V38.007L189.667 40.6835V48.8278L170.271 52.481C169.155 52.7105 167.803 52.9288 167.107 53.9052H162.242V43.1072H167.107C167.362 43.7276 167.905 44.0149 168.581 44.0149L177.225 42.9466V42.8893L162.242 39.9828V34.6872L177.194 31.6546V31.5857L168.581 30.7126C167.905 30.7126 167.362 30.9998 167.107 31.6201H162.242V22.2695Z" fill="white"/>
<path d="M170.525 9.02519C169.306 9.02519 167.616 9.05966 167.616 10.7368C167.616 11.8395 168.415 12.4139 169.439 12.4139C169.982 12.4139 170.525 12.345 170.975 11.897C171.487 11.4145 171.867 10.1854 172.061 9.47317C172.604 7.4055 173.341 4.62559 174.488 2.87952C175.164 1.88013 175.963 1.13346 177.11 0.742894C178.298 0.294892 179.609 0.0996094 180.889 0.0996094H181.022C186.306 0.0996094 190.208 2.45449 190.208 10.7023C190.208 14.2289 189.532 17.9393 187.33 20.7536H179.967V12.322C181.595 12.322 182.814 12.3565 183.398 12.0578C183.941 11.7706 184.299 11.1503 184.299 10.507C184.299 9.34684 183.183 8.82992 182.189 8.82992C179.373 8.82992 179.148 10.6104 178.574 12.9998C177.294 18.238 176.045 21.1787 170.126 21.1787H169.511C166.562 21.0523 165.097 20.5698 163.397 18.3069C162.015 16.4689 161.697 13.7809 161.697 11.1963C161.697 7.45145 162.434 4.12014 164.575 0.984125H171.037V9.02519H170.525Z" fill="white"/>
<path d="M47.293 38.6746L38.0761 48.7376L49.3821 58.5247V85.3932L36.3657 99.1778H0V0.387695H36.3555L47.293 13.0352V38.6746ZM26.7802 19.1004H22.479V39.7659H26.7802V19.1004ZM26.9031 58.5131H22.479V80.4194H26.9031V58.5131Z" fill="white"/>
<path d="M101.347 85.3801L88.5662 99.1648H64.9811L51.9648 85.3801V14.2743L64.9811 0.363281H87.5831L101.347 14.2743V85.3801ZM78.8576 19.0989H74.4335V80.418H78.8576V19.0989Z" fill="white"/>
<path d="M158.707 0.363281L142.864 48.3111L159.075 99.1535H136.596L130.575 73.5255H129.469L122.833 99.1535H100.354L116.811 48.3111L101.214 0.363281H123.693L129.469 24.7507H130.575L135.859 0.363281H158.707Z" fill="white"/>
<path d="M242.988 99.1535H226.039L216.085 59.3271H215.348V99.1535H194.835V0.363281H210.678L221.615 42.5214H222.476V0.363281H242.988V99.1535Z" fill="white"/>
<path d="M273.447 38.2597V19.0989H268.04V80.418H273.447V66.771H270.62V48.0354H295.311V85.3801L283.391 99.1648H259.693L246.186 85.3801V14.2743L258.475 0.363281H282.674L295.332 14.2743V38.2597H273.447Z" fill="white"/>
</g>
<defs>
<clipPath id="clip0_23_1049">
<rect width="295.33" height="99.8011" fill="white" transform="translate(0 0.0996094)"/>
</clipPath>
</defs>
</svg>
