<?xml version="1.0" encoding="UTF-8"?>
<svg xmlns="http://www.w3.org/2000/svg" xmlns:xlink="http://www.w3.org/1999/xlink" width="2001" height="2002" viewBox="0 0 2001 2002">
<path fill-rule="evenodd" fill="rgb(100%, 100%, 100%)" fill-opacity="1" d="M 0 1 L 2000 1 L 2000 2001 L 0 2001 L 0 1 "/>
<path fill-rule="evenodd" fill="rgb(4.707336%, 19.604492%, 39.208984%)" fill-opacity="1" d="M 756.457031 810.589844 C 776.441406 802.050781 806.027344 793.53125 832.460938 802.078125 C 960.195312 843.429688 931.777344 795.679688 1108.621094 815.808594 C 1161.558594 821.828125 1166.941406 803.800781 1190.101562 800.371094 C 1213.25 796.941406 1256.988281 787.929688 1365.058594 792.21875 C 1365.058594 792.21875 1365.910156 771.640625 1377.058594 764.78125 C 1388.210938 757.910156 1497.128906 738.191406 1497.128906 738.191406 C 1497.128906 738.191406 1553.308594 682.441406 1624.488281 684.160156 C 1695.679688 685.871094 1749.710938 722.75 1766.859375 763.921875 C 1784.011719 805.078125 1754.859375 902.859375 1703.398438 913.148438 C 1651.941406 923.441406 1606.480469 871.121094 1618.488281 839.390625 C 1618.488281 839.390625 1595.328125 868.550781 1593.621094 884.839844 C 1591.898438 901.140625 1581.609375 918.289062 1434.949219 937.160156 C 1434.949219 937.160156 1390.359375 945.738281 1382.640625 873.699219 C 1382.640625 873.699219 1361.410156 904.140625 1360.128906 919.148438 C 1358.839844 934.160156 1255.488281 954.738281 1196.320312 957.308594 C 1137.140625 959.890625 1106.261719 971.890625 1095.96875 977.898438 C 1085.679688 983.898438 978.476562 1001.910156 909.863281 991.621094 C 841.253906 981.328125 786.363281 967.609375 738.335938 1108.257812 C 690.308594 1248.910156 700.601562 1392.996094 710.890625 1437.59375 C 719.796875 1476.175781 678.730469 1475.46875 649.519531 1472.890625 C 531.980469 1462.507812 367.671875 1443.558594 261.488281 1392.996094 L 268.589844 1352.773438 C 401.886719 1319.597656 432.519531 1150.160156 432.519531 1150.160156 L 350.628906 1201.519531 L 407.117188 1049.410156 L 481.902344 963.320312 L 578.546875 909.179688 L 571.050781 962.140625 C 571.050781 962.140625 648.359375 978.359375 680.023438 914.859375 C 680.023438 914.859375 748.507812 896.371094 756.457031 810.589844 "/>
<path fill-rule="evenodd" fill="rgb(4.707336%, 19.604492%, 39.208984%)" fill-opacity="1" d="M 657.71875 890.421875 C 657.71875 890.421875 723.757812 874.980469 716.898438 818.378906 C 710.035156 761.769531 556.519531 700.019531 546.226562 699.171875 C 535.933594 698.308594 493.910156 695.730469 476.757812 726.609375 C 459.605469 757.480469 442.453125 817.519531 437.304688 865.550781 C 436.390625 874.078125 435.152344 881.5 433.636719 888.058594 L 433.632812 888.078125 C 433.445312 888.878906 433.257812 889.660156 433.066406 890.429688 C 432.085938 896.640625 432.613281 914.089844 463.257812 931.148438 C 463.257812 931.148438 432.355469 932.148438 418.953125 923.390625 C 413.148438 932.261719 406.5 939.730469 399.570312 948.738281 C 382.417969 971.039062 349.828125 1014.777344 357.546875 1037.074219 C 365.265625 1059.375 274.355469 1084.246094 240.050781 1192.308594 C 240.050781 1192.308594 241.765625 1135.703125 284.644531 1090.25 C 327.527344 1044.792969 336.960938 1047.367188 336.960938 1015.632812 C 336.960938 983.898438 394.425781 925.578125 405.574219 906.710938 C 416.722656 887.851562 423.585938 801.21875 439.023438 759.199219 C 439.023438 759.199219 400.429688 812.371094 317.238281 814.089844 C 234.046875 815.800781 217.75 824.378906 201.027344 834.671875 C 201.027344 834.671875 291.605469 830.738281 315.09375 951.308594 C 315.09375 951.308594 282.503906 866.398438 225.898438 860.398438 C 169.292969 854.398438 159.003906 915.289062 174.441406 973.609375 C 189.878906 1031.929688 199.3125 1028.496094 193.308594 1077.382812 C 187.304688 1126.269531 191.59375 1191.449219 207.03125 1230.042969 C 222.46875 1268.636719 219.039062 1305.515625 261.917969 1320.953125 C 304.800781 1336.390625 400.855469 1245.480469 439.449219 1131.414062 C 439.449219 1131.414062 406.859375 1115.976562 396.570312 1103.96875 C 396.570312 1103.96875 436.878906 1121.121094 459.175781 1104.828125 C 481.476562 1088.53125 526.929688 1015.632812 540.652344 989.050781 C 554.375 962.460938 526.929688 952.171875 526.929688 952.171875 C 526.929688 952.171875 609.265625 998.910156 657.71875 890.421875 "/>
<path fill-rule="evenodd" fill="rgb(4.707336%, 19.604492%, 39.208984%)" fill-opacity="1" d="M 431.851562 704.46875 C 425.902344 690.589844 425.902344 587.460938 463.585938 555.71875 C 501.269531 523.988281 612.335938 514.070312 687.699219 555.71875 C 763.066406 597.371094 739.269531 698.519531 739.269531 698.519531 C 700.972656 685.761719 654.132812 652.28125 633.222656 693.621094 C 614.011719 731.601562 649.109375 751.121094 680.867188 769.339844 C 708.570312 785.238281 685.167969 846.460938 630.050781 855.851562 C 612.285156 834.5 604.429688 842.679688 584.542969 830.890625 C 563.625 818.488281 541.519531 807.421875 519.230469 797.699219 C 509.90625 793.640625 502.886719 801.128906 492.921875 800.300781 C 490.660156 800.109375 479.34375 732.019531 431.851562 704.46875 "/>
<path fill-rule="evenodd" fill="rgb(94.921875%, 0%, 23.925781%)" fill-opacity="1" d="M 872.089844 1245.1875 C 878.242188 1244.660156 884.394531 1244.164062 890.546875 1243.695312 C 898.855469 1243.058594 904.289062 1240.851562 906.953125 1237.1875 C 909.621094 1233.523438 910.953125 1226.871094 910.953125 1217.136719 C 910.953125 1206.769531 910.953125 1196.3125 910.953125 1185.898438 C 910.953125 1176.113281 909.632812 1169.644531 906.953125 1166.378906 C 904.300781 1163.140625 898.855469 1162.050781 890.546875 1162.90625 C 884.394531 1163.542969 878.242188 1164.210938 872.089844 1164.933594 C 872.089844 1191.683594 872.089844 1218.4375 872.089844 1245.1875 Z M 795.144531 1449.378906 C 829.609375 1447.839844 863.816406 1448.363281 898.445312 1448.3125 C 931.054688 1448.261719 952.714844 1443.03125 963.355469 1432.5 C 974.046875 1421.921875 979.355469 1402.230469 979.355469 1373.550781 C 979.355469 1360.054688 979.355469 1346.558594 979.355469 1333.011719 C 979.355469 1309.875 975.332031 1292.683594 967.457031 1281.4375 C 959.539062 1270.125 947.5625 1264.710938 931.464844 1264.808594 C 947.769531 1260.179688 959.378906 1252.675781 966.226562 1242.152344 C 973.121094 1231.5625 976.585938 1216.410156 976.585938 1196.648438 C 976.585938 1186.1875 976.585938 1175.730469 976.585938 1165.316406 C 976.585938 1136.832031 971.171875 1117.8125 960.382812 1108.488281 C 949.535156 1099.109375 927.878906 1096.796875 895.265625 1101.113281 C 873.765625 1103.960938 852.320312 1106.8125 830.890625 1109.671875 C 827.003906 1118.898438 823.585938 1128.308594 820.8125 1136.421875 C 791.527344 1222.195312 783.828125 1314.675781 790.605469 1404.703125 C 791.722656 1419.566406 793.242188 1434.46875 795.144531 1449.378906 Z M 872.089844 1298.355469 C 872.089844 1313.296875 872.089844 1328.238281 872.089844 1343.183594 C 872.089844 1358.175781 872.089844 1373.117188 872.089844 1388.058594 C 878.753906 1387.914062 885.421875 1387.753906 892.1875 1387.578125 C 900.289062 1387.367188 905.757812 1385.527344 908.492188 1381.890625 C 911.191406 1378.296875 912.597656 1371.621094 912.597656 1361.835938 C 912.597656 1348.339844 912.597656 1334.84375 912.597656 1321.347656 C 912.597656 1311.609375 911.203125 1305.019531 908.390625 1301.585938 C 905.5625 1298.128906 900.085938 1296.683594 892.1875 1297.148438 C 885.421875 1297.550781 878.753906 1297.921875 872.089844 1298.355469 Z M 1096.980469 1359.910156 C 1096.980469 1327.082031 1096.980469 1294.210938 1096.980469 1261.382812 C 1096.980469 1228.558594 1096.980469 1195.683594 1096.980469 1162.8125 C 1096.980469 1152.398438 1095.761719 1145.59375 1093.390625 1142.324219 C 1091.039062 1139.089844 1086.410156 1137.804688 1079.441406 1138.566406 C 1072.261719 1139.347656 1067.53125 1141.691406 1065.191406 1145.410156 C 1062.820312 1149.164062 1061.601562 1156.160156 1061.601562 1166.425781 C 1061.601562 1198.867188 1061.601562 1231.355469 1061.601562 1263.796875 C 1061.601562 1296.1875 1061.601562 1328.675781 1061.601562 1361.066406 C 1061.601562 1371.523438 1062.828125 1378.46875 1065.191406 1381.792969 C 1067.539062 1385.117188 1072.261719 1386.6875 1079.441406 1386.515625 C 1086.410156 1386.351562 1091.03125 1384.539062 1093.390625 1381.070312 C 1095.738281 1377.597656 1096.980469 1370.511719 1096.980469 1359.910156 Z M 1164.859375 1345.109375 C 1164.859375 1371.429688 1163.839844 1390.226562 1161.679688 1401.507812 C 1159.53125 1412.785156 1155.648438 1422.292969 1150.300781 1430.089844 C 1144.570312 1438.441406 1137.371094 1444.339844 1128.660156 1447.683594 C 1120.039062 1450.992188 1103.539062 1452.601562 1079.339844 1452.601562 C 1055.03125 1452.601562 1038.53125 1451.042969 1029.910156 1447.878906 C 1021.199219 1444.679688 1013.898438 1439.109375 1008.171875 1431.152344 C 1002.828125 1423.734375 998.992188 1414.578125 996.683594 1403.675781 C 994.378906 1392.792969 993.300781 1375.429688 993.300781 1351.472656 C 993.300781 1323.757812 993.300781 1295.945312 993.300781 1268.230469 C 993.300781 1240.511719 993.300781 1212.699219 993.300781 1184.984375 C 993.300781 1161.027344 994.335938 1143.53125 996.582031 1132.445312 C 998.847656 1121.261719 1002.71875 1111.660156 1008.171875 1103.523438 C 1014.109375 1094.648438 1021.910156 1087.90625 1031.449219 1083.421875 C 1041.191406 1078.84375 1057.179688 1074.84375 1079.339844 1071.902344 C 1101.480469 1068.964844 1117.28125 1068.578125 1126.820312 1070.746094 C 1136.351562 1072.914062 1144.058594 1077.773438 1149.988281 1085.59375 C 1155.441406 1092.765625 1159.328125 1101.933594 1161.578125 1113.164062 C 1163.839844 1124.441406 1164.859375 1142.757812 1164.859375 1168.210938 C 1164.859375 1197.660156 1164.859375 1227.210938 1164.859375 1256.660156 C 1164.859375 1286.113281 1164.859375 1315.660156 1164.859375 1345.109375 Z M 1256.328125 1270.203125 C 1252.328125 1299.992188 1248.339844 1329.734375 1244.339844 1359.328125 C 1240.339844 1388.878906 1236.339844 1418.378906 1232.339844 1447.78125 C 1210.289062 1447.828125 1188.339844 1447.828125 1166.398438 1447.878906 C 1172.351562 1414.136719 1178.410156 1380.203125 1184.351562 1346.171875 C 1190.308594 1311.996094 1196.449219 1277.628906 1202.5 1243.117188 C 1196.960938 1213.132812 1191.328125 1183.199219 1185.878906 1153.410156 C 1180.460938 1123.765625 1174.910156 1094.125 1169.480469 1064.625 C 1190.910156 1061.78125 1212.339844 1058.886719 1233.878906 1056.042969 C 1237.460938 1082.363281 1241.261719 1108.679688 1244.851562 1135.09375 C 1248.441406 1161.558594 1252.230469 1188.117188 1255.921875 1214.675781 C 1259.921875 1187.441406 1263.929688 1160.0625 1267.921875 1132.636719 C 1271.921875 1105.160156 1275.921875 1077.542969 1279.921875 1049.921875 C 1301.039062 1047.078125 1322.171875 1044.28125 1343.398438 1041.488281 C 1337.859375 1074.121094 1332.230469 1106.65625 1326.78125 1139 C 1321.359375 1171.246094 1315.808594 1203.445312 1310.378906 1235.5 C 1316.429688 1270.496094 1322.480469 1305.679688 1328.53125 1340.964844 C 1334.578125 1376.34375 1340.628906 1411.917969 1346.679688 1447.589844 C 1324.53125 1447.636719 1302.378906 1447.636719 1280.328125 1447.683594 C 1276.328125 1417.945312 1272.339844 1388.203125 1268.328125 1358.605469 C 1264.339844 1329.105469 1260.328125 1299.609375 1256.328125 1270.203125 Z M 1423.789062 1447.445312 C 1401.640625 1447.492188 1379.488281 1447.539062 1357.441406 1447.589844 C 1357.441406 1379.574219 1357.441406 1311.5625 1357.441406 1243.597656 C 1357.441406 1175.585938 1357.441406 1107.621094 1357.441406 1039.558594 C 1379.488281 1036.667969 1401.640625 1033.726562 1423.789062 1030.785156 C 1423.789062 1100.246094 1423.789062 1169.703125 1423.789062 1239.113281 C 1423.789062 1308.574219 1423.789062 1378.03125 1423.789062 1447.445312 Z M 1445.019531 1447.445312 C 1445.019531 1377.503906 1445.019531 1307.609375 1445.019531 1237.71875 C 1445.019531 1167.824219 1445.019531 1097.882812 1445.019531 1027.941406 C 1476.191406 1023.796875 1507.371094 1019.652344 1538.539062 1015.507812 C 1547.050781 1071.421875 1555.691406 1127.671875 1564.179688 1184.164062 C 1572.710938 1240.894531 1581.300781 1298.019531 1589.921875 1355.378906 C 1589.199219 1297.679688 1588.480469 1239.886719 1587.871094 1182.238281 C 1587.25 1124.539062 1586.640625 1066.84375 1586.019531 1009.191406 C 1606.019531 1006.539062 1626.019531 1003.839844 1646.109375 1001.191406 C 1646.109375 1075.566406 1646.109375 1149.84375 1646.109375 1224.171875 C 1646.109375 1298.5 1646.109375 1372.777344 1646.109375 1447.105469 C 1615.039062 1447.152344 1583.96875 1447.203125 1553 1447.25 C 1544.289062 1388.734375 1535.589844 1330.453125 1526.851562 1272.566406 C 1518.160156 1215.011719 1509.421875 1157.652344 1500.699219 1100.679688 C 1501.421875 1158.378906 1502.140625 1216.171875 1502.859375 1273.917969 C 1503.570312 1331.664062 1504.289062 1389.503906 1505.109375 1447.347656 C 1485.011719 1447.347656 1465.019531 1447.394531 1445.019531 1447.445312 Z M 1832.03125 1191.203125 C 1832.03125 1212.746094 1832.03125 1234.296875 1832.03125 1255.839844 C 1832.03125 1277.386719 1832.03125 1298.933594 1832.03125 1320.480469 C 1832.03125 1351.761719 1830.898438 1374.609375 1828.648438 1388.828125 C 1826.390625 1403.097656 1822.648438 1415.121094 1817.371094 1424.886719 C 1811.78125 1435.222656 1804.769531 1442.46875 1796.238281 1446.574219 C 1787.75 1450.664062 1771.628906 1452.601562 1747.941406 1452.601562 C 1723.738281 1452.601562 1707.230469 1450.671875 1698.519531 1446.71875 C 1689.800781 1442.769531 1682.558594 1435.914062 1676.78125 1425.992188 C 1671.378906 1416.730469 1667.710938 1405.304688 1665.390625 1391.722656 C 1663.101562 1378.261719 1661.910156 1356.582031 1661.910156 1326.792969 C 1661.910156 1292.28125 1661.910156 1257.816406 1661.910156 1223.351562 C 1661.910156 1188.839844 1661.910156 1154.328125 1661.910156 1119.816406 C 1661.910156 1090.027344 1662.988281 1068.183594 1665.191406 1054.40625 C 1667.390625 1040.613281 1671.339844 1028.808594 1676.78125 1018.832031 C 1682.71875 1007.9375 1690.441406 999.878906 1700.050781 994.539062 C 1709.609375 989.230469 1725.578125 984.871094 1747.941406 981.859375 C 1768.960938 979.039062 1784.261719 979.109375 1793.988281 982.148438 C 1803.539062 985.140625 1811.328125 991.398438 1817.058594 1001.050781 C 1822.300781 1009.859375 1825.988281 1021.191406 1828.238281 1035.027344 C 1830.5 1048.957031 1831.621094 1071.757812 1831.621094 1103.234375 C 1831.621094 1111.378906 1831.621094 1119.527344 1831.621094 1127.671875 C 1810.5 1129.601562 1789.371094 1131.527344 1768.351562 1133.40625 C 1768.351562 1120.441406 1768.351562 1107.425781 1768.351562 1094.363281 C 1768.351562 1081.542969 1767.070312 1073.078125 1764.449219 1069.011719 C 1761.839844 1064.929688 1756.460938 1063.40625 1748.460938 1064.285156 C 1740.261719 1065.1875 1734.851562 1067.964844 1732.25 1072.527344 C 1729.621094 1077.171875 1728.261719 1085.785156 1728.261719 1098.460938 C 1728.261719 1138.613281 1728.261719 1178.863281 1728.261719 1218.96875 C 1728.261719 1259.070312 1728.261719 1299.222656 1728.261719 1339.328125 C 1728.261719 1352.101562 1729.628906 1360.511719 1732.25 1364.777344 C 1734.859375 1368.996094 1740.25 1371.09375 1748.460938 1370.898438 C 1756.460938 1370.710938 1761.839844 1368.371094 1764.449219 1363.957031 C 1767.070312 1359.550781 1768.351562 1350.941406 1768.351562 1338.023438 C 1768.351562 1318.261719 1768.351562 1298.453125 1768.351562 1278.6875 C 1762.101562 1278.976562 1755.839844 1279.265625 1749.578125 1279.605469 C 1749.578125 1252.128906 1749.578125 1224.703125 1749.578125 1197.226562 C 1777.070312 1195.203125 1804.550781 1193.226562 1832.03125 1191.203125 "/>
</svg>
