<svg width="455" height="87" viewBox="0 0 455 87" fill="none" xmlns="http://www.w3.org/2000/svg">
<path d="M155.301 15.641L159.34 15.6264L159.378 26.3014L164.428 26.2831L169.013 9.33372L168.988 2.52501L155.254 2.57476L155.301 15.641ZM93.9511 30.4033C96.9807 30.3923 98.4018 32.5959 98.4644 49.897L88.5681 49.9328C88.9092 32.6303 90.517 30.4157 93.9511 30.4033ZM112.457 65.1222L105.994 65.1456L106.001 67.1704C106.032 75.6366 103.42 79.695 97.966 79.7147C91.705 79.7374 88.662 76.0667 88.592 56.7416L88.5867 55.27L113.228 55.1808C113.146 32.5425 107.66 23.7281 93.9263 23.7778C80.1914 23.8276 71.3504 36.7428 71.4224 56.6212C71.4937 76.3136 80.0156 86.9571 94.5587 86.9044C107.082 86.8591 112.512 80.3978 112.463 66.7791L112.457 65.1222ZM283.863 29.7154C286.893 29.7045 288.315 31.908 288.377 49.2091L279.037 49.243C279.378 31.9404 280.429 29.7279 283.863 29.7154ZM302.369 64.4343L295.906 64.4577L295.913 66.4825C295.944 74.9488 293.333 79.0071 287.879 79.0269C281.617 79.0495 279.131 75.3769 279.061 56.0517L279.056 54.5801L303.141 54.4929C303.059 31.8547 297.573 23.0402 283.839 23.09C270.104 23.1397 261.263 36.0549 261.335 55.9326C261.407 75.6257 269.929 86.2693 284.472 86.2166C296.995 86.1712 302.425 79.71 302.375 66.0912L302.369 64.4343ZM391.724 85.8281C400.814 85.7952 404.633 80.6281 404.606 73.2655L404.573 64.0641L398.514 64.0861L398.547 73.2875C398.561 77.1537 397.959 78.4429 395.94 78.4502C394.121 78.4568 393.512 77.3546 393.499 73.8576L393.339 29.6868L404.448 29.6466L404.428 23.9415L393.52 23.981L393.458 6.86458L387.197 6.88726L377.97 24.7732L372.516 24.7929L372.534 29.5782L377.381 29.5607L377.529 70.4184C377.568 81.094 379.606 85.872 391.724 85.8281ZM344.695 39.2498C344.653 27.839 338.981 23.0749 326.862 23.1188C314.743 23.1627 306.49 31.1064 306.524 40.4931L306.538 44.1741L320.475 44.1236L320.444 35.4727C320.426 30.5034 321.631 28.6589 324.661 28.6479C327.691 28.637 328.908 30.2888 328.927 35.442L328.964 45.5651C310.604 51.336 304.964 55.5907 305.015 69.762C305.055 80.8048 309.922 86.1244 318.204 86.0944C325.273 86.0688 328.49 81.6397 330.297 78.8732L330.319 84.9462L348.296 84.881L348.278 79.9111L344.843 79.9236L344.696 39.2498L344.695 39.2498ZM450.075 79.5424L449.917 35.9235C449.884 26.9054 445.426 22.6887 437.548 22.7172C428.055 22.7516 424.24 29.207 424.24 29.207L424.138 0.8644L404.149 2.96159L404.166 7.74621L408.812 7.72939L409.072 79.6909L405.841 79.7026L405.859 84.6726L428.078 84.5921L428.06 79.6221L424.828 79.6339L424.69 41.5367C424.666 34.9112 426.676 32.1434 430.311 32.1302C432.937 32.1207 433.951 33.5893 433.965 37.2703L434.118 79.6002L430.483 79.6134L430.501 84.5833L454.536 84.4962L454.518 79.5263L450.075 79.5424ZM328.982 50.7176L329.05 69.4903C329.07 75.012 327.866 77.2258 324.432 77.2383C321.807 77.2478 320.587 75.2267 320.563 68.6019C320.522 57.3745 321.523 54.6103 328.982 50.7176ZM258.345 80.2368L258.081 7.17164L262.727 7.15482L262.709 2.36883L235.037 2.46905L235.054 7.25436L240.71 7.23388L240.834 41.4661L223.06 41.5305L222.936 7.29894L228.793 7.27772L228.776 2.49173L200.7 2.59342L200.717 7.37873L205.565 7.36117L205.83 80.4264L200.982 80.4439L201 85.4139L229.076 85.3122L229.058 80.3422L223.2 80.3635L223.08 47.2369L240.854 47.1725L240.974 80.2998L235.319 80.3202L235.337 85.2902L263.009 85.1899L262.991 80.22L258.345 80.2368ZM369.484 79.8343L369.199 1.06339L348.402 3.1635L348.419 7.94813L353.469 7.92984L353.73 79.8914L350.498 79.9031L350.516 84.873L374.35 84.7867L374.332 79.8167L369.484 79.8343ZM199.931 69.0382C199.86 49.5298 176.83 48.3242 176.783 35.4405C176.767 31.0238 179.183 28.8063 183.02 28.7924C188.878 28.7712 191.928 34.0973 192.372 45.322L197.623 45.303L197.556 26.8989C197.556 26.8989 191.687 23.6077 182.799 23.6399C172.095 23.6787 163.429 29.2312 163.47 40.458C163.536 58.8628 185.965 61.3589 186.011 73.8733C186.029 78.8432 183.412 81.2454 179.169 81.2608C172.706 81.2842 169.455 76.1427 169.006 63.4444L163.755 63.4634L163.827 83.3411C163.827 83.3411 170.302 86.6301 179.795 86.5957C191.511 86.5533 199.972 80.4483 199.931 69.0382ZM68.4815 80.9245L68.2169 7.85932L72.4585 7.84396L72.4412 3.05797L48.8092 3.14356L37.2632 49.7501L24.5717 3.23135L0.333409 3.31914L0.350742 8.10445L5.40057 8.08616L5.66521 81.1514L0.615381 81.1696L0.633382 86.1396L19.2155 86.0723L19.1975 81.1023L13.3401 81.1236L13.1542 29.7755L28.1031 86.0401L36.5863 86.0094L50.9234 29.2708L51.1107 80.9868L45.6571 81.0065L45.6751 85.9764L72.7411 85.8784L72.7231 80.9085L68.4815 80.9245ZM157.959 80.6004L157.801 36.9815C157.769 27.9634 153.311 23.7467 145.635 23.7745C136.142 23.8089 132.327 30.2643 132.327 30.2643L132.304 23.8228L112.113 25.9207L112.131 30.89L116.777 30.8731L116.957 80.7489L112.11 80.7665L112.128 85.7364L136.163 85.6494L136.145 80.6795L132.914 80.6912L132.776 42.594C132.752 35.9685 134.762 33.2007 138.397 33.1875C141.023 33.178 142.038 34.6466 142.051 38.3276L142.204 80.6575L138.569 80.6707L138.587 85.6406L161.209 85.5587L161.191 80.5887L157.959 80.6004Z" fill="#FF0000"/>
</svg>
